<svg version="1.1" id="Layer_1" xmlns="http://www.w3.org/2000/svg" xmlns:xlink="http://www.w3.org/1999/xlink" x="0px" y="0px"
	 width="100%" viewBox="0 0 185 92" enable-background="new 0 0 185 92" xml:space="preserve">
<path fill="none" opacity="1.000000" stroke="#000000" stroke-linecap="round" stroke-linejoin="round" stroke-width="2.000000"
	d="
M148.500000,80.500000 
	C143.166672,80.166664 137.836716,79.623512 132.499390,79.537453 
	C112.658173,79.217529 92.820656,79.594566 73.002480,80.551430 
	C65.820374,80.898201 58.666668,81.833336 51.500000,82.500000 
"/>
<path fill="none" opacity="1.000000" stroke="#000000" stroke-linecap="round" stroke-linejoin="round" stroke-width="3.000000"
	d="
M155.500000,74.000000 
	C142.857651,72.883804 130.167191,72.871468 117.509109,72.298737 
	C101.952515,71.594856 86.523636,73.448341 70.997032,73.288589 
	C60.896049,73.184677 50.597237,73.825668 40.530380,75.219421 
	C35.839531,75.868866 31.087458,75.260727 26.500000,76.500000 
"/>
<path fill="none" opacity="1.000000" stroke="#000000" stroke-linecap="round" stroke-linejoin="round" stroke-width="5.000000"
	d="
M122.500000,9.000000 
	C120.333336,16.833334 118.285355,24.702002 115.966789,32.490112 
	C113.623116,40.362534 112.019402,48.379776 111.060959,56.507191 
	C110.490471,61.344894 110.985580,66.189156 113.000000,70.750000 
"/>
<path fill="none" opacity="1.000000" stroke="#000000" stroke-linecap="round" stroke-linejoin="round" stroke-width="5.000000"
	d="
M89.499992,58.500000 
	C92.166664,50.833332 95.865280,43.337093 97.168648,35.445278 
	C98.184334,29.295380 99.148750,22.887449 99.019455,16.499607 
	C98.984818,14.788566 98.326149,13.422126 96.980499,12.529395 
	C95.098015,11.280517 93.416908,12.220100 92.014053,13.515224 
	C87.264748,17.899803 84.138664,23.464500 81.023262,29.013063 
	C80.040878,30.762705 79.834305,33.453312 78.410774,34.359894 
	C73.069931,37.761208 73.154045,43.486881 71.488388,48.496140 
	C69.875313,53.347290 67.996574,58.118519 66.606300,63.030090 
	C66.202667,64.456039 65.451996,64.618660 64.500000,65.000000 
"/>
<path fill="none" opacity="1.000000" stroke="#000000" stroke-linecap="round" stroke-linejoin="round" stroke-width="3.000000"
	d="
M75.000000,36.500000 
	C73.557365,34.503994 73.575661,32.065823 74.109482,30.028690 
	C75.200462,25.865351 74.285423,21.924767 73.425957,18.016281 
	C72.468689,13.663053 68.260109,11.008720 64.000000,11.499999 
	C59.812233,11.982935 57.168907,15.003881 57.000000,19.500000 
"/>
<path fill="none" opacity="1.000000" stroke="#000000" stroke-linecap="round" stroke-linejoin="round" stroke-width="3.000000"
	d="
M122.500000,7.500000 
	C112.136978,10.285039 109.038315,19.796926 104.015617,27.510170 
	C102.424377,29.953798 101.994774,33.494770 98.000000,33.500000 
"/>
</svg>